#tb 0: 1/25
#media_type 0: video
#codec_id 0: rawvideo
#dimensions 0: 832x480
#sar 0: 0/1
0,          0,          0,        1,  1198080, 0x5d0b5339
0,          1,          1,        1,  1198080, 0x6c14bdb2
0,          2,          2,        1,  1198080, 0x5fd7a002
0,          3,          3,        1,  1198080, 0x0f50bb29
0,          4,          4,        1,  1198080, 0xb37627e1
0,          5,          5,        1,  1198080, 0x2625434c
0,          6,          6,        1,  1198080, 0x07c5fd90
0,          7,          7,        1,  1198080, 0xa5f24cb7
0,          8,          8,        1,  1198080, 0x1fa89f98
0,          9,          9,        1,  1198080, 0x3ad3d9d0
0,         10,         10,        1,  1198080, 0x8e8f27eb
0,         11,         11,        1,  1198080, 0xff1d5e5a
0,         12,         12,        1,  1198080, 0xa5ead87b
0,         13,         13,        1,  1198080, 0xa1cfa4e1
0,         14,         14,        1,  1198080, 0xd57ecc0e
0,         15,         15,        1,  1198080, 0x07798e57
0,         16,         16,        1,  1198080, 0x1091383e
0,         17,         17,        1,  1198080, 0x7a27db17
0,         18,         18,        1,  1198080, 0x08c23f47
0,         19,         19,        1,  1198080, 0x442d626e
0,         20,         20,        1,  1198080, 0x1a6d7421
0,         21,         21,        1,  1198080, 0x8f6b8f81
0,         22,         22,        1,  1198080, 0x69004f9c
0,         23,         23,        1,  1198080, 0xf61e8128
0,         24,         24,        1,  1198080, 0x3534481e
0,         25,         25,        1,  1198080, 0xc571c0c9
0,         26,         26,        1,  1198080, 0xc88c0d2d
0,         27,         27,        1,  1198080, 0x906e239b
0,         28,         28,        1,  1198080, 0x08baa14e
0,         29,         29,        1,  1198080, 0x50248fce
